<svg width="47" height="46" viewBox="0 0 47 46" fill="none" xmlns="http://www.w3.org/2000/svg">
    <path d="M11.4925 22.1458H11.5634L13.8158 16.6149H16.2348V16.9941L12.0558 26.4783H10.9857L6.7627 16.9913V16.6121H9.18365L11.4925 22.1458Z" fill="white"/>
    <path d="M23.0779 23.2048V26.3665H20.5161V16.615H26.6533V18.8448H23.0779V20.976H26.2452V23.2048H23.0779Z" fill="white"/>
    <path d="M34.8467 23.3021L33.0446 26.3661H30.3276V25.9869L33.5093 21.1955L30.6658 16.9881V16.6089H33.288L34.8467 19.1515H34.9166L36.4926 16.6155H39.0975V16.9947L36.2579 21.1984L39.4529 25.9898V26.369H36.7369L34.9348 23.3049L34.8467 23.3021Z" fill="white"/>
    <path d="M20.4857 6.29591e-07C9.18948 6.29591e-07 0 9.0955 0 20.2738C0 28.3815 4.83521 35.3913 11.8011 38.6317C8.94417 36.8362 6.59145 34.3561 4.96095 31.4213C3.33045 28.4865 2.47492 25.1919 2.47365 21.8429C2.47365 10.8721 11.4926 1.94728 22.579 1.94728C27.5252 1.94326 32.2978 3.75101 35.9771 7.02214C34.0571 4.81815 31.6793 3.04991 29.0058 1.83807C26.3324 0.62622 23.4263 -0.000725246 20.4857 6.29591e-07Z" fill="#A2C037"/>
    <path d="M32.8973 0.500977C39.5681 4.61642 44.0182 11.941 44.0182 20.2752C44.0182 33.1145 33.4625 43.56 20.4869 43.56C14.6302 43.5654 8.98374 41.4009 4.65918 37.4926C6.89914 40.0118 9.656 42.0297 12.746 43.4117C15.8361 44.7938 19.1883 45.5081 22.5792 45.5073C35.7637 45.5073 46.4909 34.8892 46.4909 21.8452C46.4909 12.452 40.9314 4.31968 32.8973 0.500977Z" fill="#C20D19"/>
</svg>
