<svg width="80" height="80" viewBox="0 0 80 80" fill="none" xmlns="http://www.w3.org/2000/svg">
<g opacity="0.7">
<path d="M40.0003 28.5463C25.8153 28.5463 14.2734 40.0881 14.2734 54.2731C14.2734 68.4581 25.8153 80 40.0003 80C54.1853 80 65.7272 68.4588 65.7272 54.2731C65.7327 48.1505 63.5445 42.2288 59.5598 37.5805V19.5595C59.5598 8.75688 50.8029 0 40.0003 0C29.1977 0 20.4408 8.75688 20.4408 19.5595V22.2026C20.4408 24.2463 22.0976 25.9031 24.1413 25.9031C26.1849 25.9031 27.8417 24.2463 27.8417 22.2026V19.5595C27.8417 12.8442 33.285 7.40088 40.0003 7.40088C46.7156 7.40088 52.1589 12.8442 52.1589 19.5595V31.6059C48.4227 29.5932 44.2445 28.5414 40.0003 28.5463ZM40.0003 77.8855C26.9806 77.8855 16.388 67.2928 16.388 54.2731C16.388 41.2534 26.9806 30.6608 40.0003 30.6608C53.02 30.6608 63.6126 41.2534 63.6126 54.2731C63.6126 67.2928 53.02 77.8855 40.0003 77.8855ZM40.0003 5.28634C32.121 5.29529 25.7361 11.6802 25.7272 19.5595V22.2026C25.7272 23.0782 25.0168 23.7885 24.1413 23.7885C23.2657 23.7885 22.5554 23.0782 22.5554 22.2026V19.5595C22.5554 9.92497 30.3658 2.11454 40.0003 2.11454C49.6348 2.11454 57.4452 9.92497 57.4452 19.5595V35.3834C56.4547 34.4679 55.394 33.6316 54.2734 32.8813V19.5595C54.2645 11.6802 47.8796 5.29529 40.0003 5.28634Z" fill="#1AA3E0"/>
<path d="M42.8191 63.1939V59.3145C44.361 58.1106 44.9681 56.0615 44.3321 54.2126C43.6954 52.3631 41.9553 51.1213 39.9998 51.1213C38.0442 51.1213 36.3041 52.3631 35.6674 54.2126C35.0314 56.0615 35.6385 58.1106 37.1804 59.3145V63.1939C37.1804 64.7509 38.4428 66.0133 39.9998 66.0133C41.5568 66.0133 42.8191 64.7509 42.8191 63.1939ZM39.2949 63.1939V58.7556C39.2949 58.3777 39.0932 58.0294 38.7663 57.8401C37.7992 57.2819 37.3277 56.1441 37.6168 55.0654C37.9059 53.9868 38.8833 53.2366 39.9998 53.2366C41.1162 53.2366 42.0936 53.9868 42.3827 55.0654C42.6718 56.1441 42.2003 57.2819 41.2332 57.8401C40.9063 58.0294 40.7046 58.3777 40.7046 58.7556V63.1939C40.7046 63.5835 40.3894 63.8987 39.9998 63.8987C39.6102 63.8987 39.2949 63.5835 39.2949 63.1939V63.1939Z" fill="#1AA3E0"/>
<path d="M43.6516 72.0243C42.4491 72.2701 41.2253 72.3933 39.9987 72.3926C39.415 72.3926 38.9414 72.8662 38.9414 73.4499C38.9414 74.0343 39.415 74.5071 39.9987 74.5071C41.3678 74.5078 42.7341 74.3702 44.0756 74.0962C44.6476 73.9792 45.0166 73.4203 44.8996 72.8483C44.7819 72.2763 44.2236 71.9073 43.6516 72.0243V72.0243Z" fill="#1AA3E0"/>
<path d="M47.2176 70.8975C46.8618 71.0421 46.6126 71.3677 46.5665 71.749C46.5197 72.1296 46.6835 72.5061 46.9939 72.7319C47.3044 72.9577 47.7132 72.9969 48.0608 72.8359C55.4521 69.6234 60.2325 62.332 60.2311 54.2731C60.2311 53.6894 59.7582 53.2158 59.1738 53.2158C58.5901 53.2158 58.1166 53.6894 58.1166 54.2731C58.118 61.4902 53.8366 68.0203 47.2176 70.8975Z" fill="#1AA3E0"/>
<path d="M36.515 36.4689C36.5797 36.4689 36.6438 36.4627 36.7071 36.451C37.7926 36.2527 38.8946 36.1529 39.998 36.1536C40.5817 36.1536 41.0552 35.68 41.0552 35.0963C41.0552 34.5119 40.5817 34.0391 39.998 34.0391C38.7666 34.0391 37.5372 34.1499 36.3258 34.3715C35.7889 34.4706 35.4158 34.9628 35.4653 35.5066C35.5142 36.0504 35.9692 36.4668 36.515 36.4689Z" fill="#1AA3E0"/>
<path d="M32.1232 35.6298C24.6266 38.7899 19.756 46.1378 19.7656 54.2731C19.7656 54.8568 20.2385 55.3304 20.8229 55.3304C21.4066 55.3304 21.8802 54.8568 21.8802 54.2731C21.8712 46.9872 26.2331 40.4068 32.9471 37.5771C33.3023 37.4346 33.5528 37.1118 33.6024 36.7325C33.6519 36.3526 33.4922 35.976 33.1859 35.7475C32.8789 35.519 32.4721 35.4742 32.1232 35.6298Z" fill="#1AA3E0"/>
</g>
</svg>
